<?xml version="1.0" encoding="utf-8"?>
<!-- Generator: Adobe Illustrator 16.0.0, SVG Export Plug-In . SVG Version: 6.00 Build 0)  -->
<!DOCTYPE svg PUBLIC "-//W3C//DTD SVG 1.1//EN" "http://www.w3.org/Graphics/SVG/1.1/DTD/svg11.dtd">
<svg version="1.1" id="Capa_1" xmlns="http://www.w3.org/2000/svg" xmlns:xlink="http://www.w3.org/1999/xlink" x="0px" y="0px"
	 width="379px" height="666.5px" viewBox="469.5 0 379 666.5" enable-background="new 469.5 0 379 666.5" xml:space="preserve">
<g transform="translate(0.000000,720.000000) scale(0.100000,-0.100000)">
	<path d="M5317.978,7079.326c-91.079-10.752-194.854-51.606-250.21-99.99c-50.728-45.156-100.303-142.993-116.45-231.152
		c-8.076-51.611-11.533-881.611-9.224-2926.528l3.457-2854.487l29.976-72.041c16.147-38.701,46.123-90.303,65.723-112.891
		c42.666-50.527,145.293-103.203,230.61-120.41C5314.521,653.223,5723.852,650,6625.527,650
		c1388.251,0,1358.271-1.074,1474.726,53.76c58.809,29.023,131.455,108.584,162.588,181.699l26.514,60.205l3.457,1282.637
		c2.305,1121.367,4.619,1281.562,19.609,1281.562c26.514,0,25.361,790.229,0,799.902c-13.848,4.302-17.305,29.033-17.305,130.093
		c0,103.218,3.457,123.643,17.305,123.643c14.98,0,17.295,29.033,17.295,193.525c0,163.423-2.314,193.525-17.295,193.525
		c-13.848,0-17.305,119.341-19.609,917.09c-3.457,862.261-4.609,919.243-25.371,970.854c-54.18,140.84-170.645,220.4-352.822,240.83
		C7799.315,7092.226,5436.743,7092.226,5317.978,7079.326z M8179.813,3821.655V1241.328H6617.451H5055.092v2580.327v2580.332
		h1562.358h1562.363V3821.655z"/>
</g>
</svg>
