<?xml version="1.0" standalone="no"?>
<!DOCTYPE svg PUBLIC "-//W3C//DTD SVG 20010904//EN"
 "http://www.w3.org/TR/2001/REC-SVG-20010904/DTD/svg10.dtd">
<svg version="1.0" xmlns="http://www.w3.org/2000/svg"
 width="376.000000pt" height="663.000000pt" viewBox="0 0 376.000000 663.000000"
 preserveAspectRatio="xMidYMid meet">

<g transform="translate(0.000000,663.000000) scale(0.100000,-0.100000)"
fill="#000000" stroke="none">
<path d="M574 6495 c-200 -44 -297 -157 -315 -369 -4 -56 -8 -1358 -9 -2895
l0 -2793 38 -82 c47 -100 86 -139 182 -185 71 -34 82 -36 215 -43 212 -10
2300 -9 2460 2 81 5 160 16 188 26 69 24 160 110 196 188 l29 61 7 1245 c6
1002 10 1259 21 1318 18 92 19 682 2 752 -6 25 -13 96 -15 157 -3 91 -1 117
11 135 21 29 24 356 4 376 -10 10 -15 221 -23 930 -10 902 -11 918 -32 962
-47 100 -121 165 -233 203 l-65 22 -1300 2 c-1058 1 -1311 -1 -1361 -12z
m2876 -3225 l0 -2560 -1545 0 -1545 0 0 2560 0 2560 1545 0 1545 0 0 -2560z"/>
<path d="M2087 5623 c-11 -10 -8 -77 4 -112 11 -30 12 -31 76 -31 63 0 65 1
58 23 -4 12 -9 39 -12 60 -6 42 -31 62 -69 53 -14 -4 -24 -2 -24 4 0 11 -23
14 -33 3z m19 -40 c-11 -11 -19 6 -11 24 8 17 8 17 12 0 3 -10 2 -21 -1 -24z
m78 -51 c-17 -36 -34 -42 -34 -13 0 11 -4 23 -10 26 -18 11 -10 34 13 37 38 7
50 -13 31 -50z"/>
<path d="M640 5581 c0 -14 -8 -21 -27 -24 l-28 -4 27 -2 c19 -1 28 -7 31 -23
2 -13 5 -2 6 25 0 26 -1 47 -4 47 -3 0 -5 -9 -5 -19z"/>
<path d="M1214 5568 c-16 -17 -23 -28 -16 -24 7 4 21 2 30 -6 15 -12 16 -11 3
5 -12 15 -11 20 4 37 10 11 16 20 13 20 -2 0 -17 -14 -34 -32z"/>
<path d="M679 5563 c-12 -16 -12 -17 1 -7 8 6 22 14 30 17 13 5 12 6 -1 6 -9
1 -23 -7 -30 -16z"/>
<path d="M808 5573 c6 -2 18 -2 25 0 6 3 1 5 -13 5 -14 0 -19 -2 -12 -5z"/>
<path d="M948 5573 c7 -3 16 -2 19 1 4 3 -2 6 -13 5 -11 0 -14 -3 -6 -6z"/>
<path d="M999 5563 c-12 -16 -12 -17 1 -7 8 6 22 14 30 17 13 5 12 6 -1 6 -9
1 -23 -7 -30 -16z"/>
<path d="M1272 5555 c0 -16 2 -22 5 -12 2 9 2 23 0 30 -3 6 -5 -1 -5 -18z"/>
<path d="M1390 5573 c8 -3 19 -11 23 -17 6 -7 7 -6 4 4 -2 8 -12 16 -23 17
-13 2 -15 1 -4 -4z"/>
<path d="M1440 5573 c8 -3 19 -11 23 -17 6 -7 7 -6 4 4 -2 8 -12 16 -23 17
-13 2 -15 1 -4 -4z"/>
<path d="M1508 5573 c6 -2 18 -2 25 0 6 3 1 5 -13 5 -14 0 -19 -2 -12 -5z"/>
<path d="M1630 5576 c0 -2 9 -6 20 -9 11 -3 18 -1 14 4 -5 9 -34 13 -34 5z"/>
<path d="M1798 5573 c12 -2 22 -8 22 -13 0 -5 -10 -11 -22 -13 -23 -4 -23 -4
-1 -6 12 0 24 -9 27 -18 2 -10 4 -2 3 17 -2 30 -6 35 -27 37 -22 1 -22 1 -2
-4z"/>
<path d="M1865 5569 c-4 -6 -4 -13 -1 -16 3 -4 6 -1 6 6 0 8 8 11 20 8 11 -3
18 -1 14 4 -7 12 -31 11 -39 -2z"/>
<path d="M1940 5576 c0 -2 9 -6 20 -9 11 -3 18 -1 14 4 -5 9 -34 13 -34 5z"/>
<path d="M820 5551 c-27 -7 -35 -35 -10 -37 9 0 10 1 3 3 -20 7 -15 23 6 23
11 0 22 -8 24 -17 3 -11 5 -7 6 10 0 15 0 27 -1 26 -2 -1 -14 -4 -28 -8z"/>
<path d="M1520 5551 c-27 -7 -35 -35 -10 -37 9 0 10 1 3 3 -20 7 -15 23 6 23
11 0 22 -8 24 -17 3 -11 5 -7 6 10 0 15 0 27 -1 26 -2 -1 -14 -4 -28 -8z"/>
<path d="M1625 5540 c-3 -5 -3 -14 0 -20 8 -12 32 -13 39 -1 4 5 -3 7 -14 4
-11 -3 -20 -1 -20 5 0 6 10 13 23 15 22 4 22 4 0 6 -12 0 -25 -3 -28 -9z"/>
<path d="M1700 5541 c0 -5 9 -7 20 -4 11 3 20 7 20 9 0 2 -9 4 -20 4 -11 0
-20 -4 -20 -9z"/>
<path d="M1935 5540 c-3 -5 -3 -14 0 -20 8 -12 32 -13 39 -1 4 5 -3 7 -14 4
-11 -3 -20 -1 -20 5 0 6 10 13 23 15 22 4 22 4 0 6 -12 0 -25 -3 -28 -9z"/>
<path d="M682 5524 c9 -9 21 -15 27 -13 6 2 -2 10 -17 17 -25 11 -25 11 -10
-4z"/>
<path d="M970 5532 c0 -7 -10 -13 -22 -13 -19 -1 -20 -2 -4 -6 20 -5 44 12 33
24 -4 3 -7 1 -7 -5z"/>
<path d="M1002 5524 c9 -9 21 -15 27 -13 6 2 -2 10 -17 17 -25 11 -25 11 -10
-4z"/>
<path d="M1321 5524 c0 -11 3 -14 6 -6 3 7 2 16 -1 19 -3 4 -6 -2 -5 -13z"/>
<path d="M1860 5532 c0 -18 29 -27 43 -13 9 9 8 11 -7 5 -11 -4 -21 -2 -27 7
-6 10 -9 11 -9 1z"/>
<path d="M2020 5520 c0 -5 5 -10 11 -10 5 0 7 5 4 10 -3 6 -8 10 -11 10 -2 0
-4 -4 -4 -10z"/>
<path d="M1288 5513 c7 -3 16 -2 19 1 4 3 -2 6 -13 5 -11 0 -14 -3 -6 -6z"/>
<path d="M1788 5513 c7 -3 16 -2 19 1 4 3 -2 6 -13 5 -11 0 -14 -3 -6 -6z"/>
<path d="M2010 5490 c-9 -6 -10 -10 -3 -10 6 0 15 5 18 10 8 12 4 12 -15 0z"/>
<path d="M586 5391 c-4 -5 3 -7 14 -4 23 6 26 13 6 13 -8 0 -17 -4 -20 -9z"/>
<path d="M668 5393 c7 -3 16 -2 19 1 4 3 -2 6 -13 5 -11 0 -14 -3 -6 -6z"/>
<path d="M718 5393 c6 -2 18 -2 25 0 6 3 1 5 -13 5 -14 0 -19 -2 -12 -5z"/>
<path d="M790 5393 c8 -3 22 -11 30 -17 13 -10 13 -9 1 7 -7 9 -21 17 -30 16
-13 0 -14 -1 -1 -6z"/>
<path d="M960 5390 c-24 -15 -7 -18 20 -3 14 7 18 13 10 13 -8 0 -22 -4 -30
-10z"/>
<path d="M1058 5393 c12 -2 22 -8 22 -13 0 -5 -10 -11 -22 -13 -23 -4 -23 -4
-1 -6 12 0 24 -9 27 -18 2 -10 4 -2 3 17 -2 30 -6 35 -27 37 -22 1 -22 1 -2
-4z"/>
<path d="M1178 5393 c6 -2 18 -2 25 0 6 3 1 5 -13 5 -14 0 -19 -2 -12 -5z"/>
<path d="M1288 5393 c6 -2 18 -2 25 0 6 3 1 5 -13 5 -14 0 -19 -2 -12 -5z"/>
<path d="M1422 5375 c0 -16 2 -22 5 -12 2 9 2 23 0 30 -3 6 -5 -1 -5 -18z"/>
<path d="M1509 5383 c-12 -16 -12 -17 1 -7 8 6 22 14 30 17 13 5 12 6 -1 6 -9
1 -23 -7 -30 -16z"/>
<path d="M1618 5393 c12 -2 22 -8 22 -13 0 -5 -10 -11 -22 -13 -23 -4 -23 -4
-1 -6 12 0 24 -9 27 -18 2 -10 4 -2 3 17 -2 30 -6 35 -27 37 -22 1 -22 1 -2
-4z"/>
<path d="M1728 5393 c6 -2 18 -2 25 0 6 3 1 5 -13 5 -14 0 -19 -2 -12 -5z"/>
<path d="M1790 5396 c0 -2 9 -6 20 -9 11 -3 18 -1 14 4 -5 9 -34 13 -34 5z"/>
<path d="M1886 5391 c-4 -5 3 -7 14 -4 23 6 26 13 6 13 -8 0 -17 -4 -20 -9z"/>
<path d="M1970 5396 c0 -2 9 -6 20 -9 11 -3 18 -1 14 4 -5 9 -34 13 -34 5z"/>
<path d="M2068 5393 c7 -3 16 -2 19 1 4 3 -2 6 -13 5 -11 0 -14 -3 -6 -6z"/>
<path d="M2200 5396 c0 -2 9 -6 20 -9 11 -3 18 -1 14 4 -5 9 -34 13 -34 5z"/>
<path d="M2265 5390 c-9 -14 1 -27 25 -33 11 -3 18 -1 14 4 -3 5 -12 9 -20 9
-23 0 -16 18 9 23 22 4 22 4 0 6 -12 0 -25 -3 -28 -9z"/>
<path d="M1190 5371 c-27 -7 -35 -35 -10 -37 9 0 10 1 3 3 -20 7 -15 23 6 23
11 0 22 -8 24 -17 3 -11 5 -7 6 10 0 15 0 27 -1 26 -2 -1 -14 -4 -28 -8z"/>
<path d="M1300 5371 c-27 -7 -35 -35 -10 -37 9 0 10 1 3 3 -20 7 -15 23 6 23
11 0 22 -8 24 -17 3 -11 5 -7 6 10 0 15 0 27 -1 26 -2 -1 -14 -4 -28 -8z"/>
<path d="M593 5363 c9 -2 23 -2 30 0 6 3 -1 5 -18 5 -16 0 -22 -2 -12 -5z"/>
<path d="M1788 5363 c12 -2 30 -2 40 0 9 3 -1 5 -23 4 -22 0 -30 -2 -17 -4z"/>
<path d="M2208 5363 c6 -2 18 -2 25 0 6 3 1 5 -13 5 -14 0 -19 -2 -12 -5z"/>
<path d="M800 5344 c-17 -9 -20 -14 -9 -14 9 0 22 7 29 15 15 18 13 18 -20 -1z"/>
<path d="M950 5350 c0 -9 39 -25 45 -18 2 2 -7 8 -21 15 -13 6 -24 7 -24 3z"/>
<path d="M1471 5344 c0 -11 3 -14 6 -6 3 7 2 16 -1 19 -3 4 -6 -2 -5 -13z"/>
<path d="M1512 5344 c9 -9 21 -15 27 -13 6 2 -2 10 -17 17 -25 11 -25 11 -10
-4z"/>
<path d="M727 5339 c7 -7 15 -10 18 -7 3 3 -2 9 -12 12 -14 6 -15 5 -6 -5z"/>
<path d="M1737 5339 c7 -7 15 -10 18 -7 3 3 -2 9 -12 12 -14 6 -15 5 -6 -5z"/>
<path d="M1788 5338 c5 -5 16 -8 23 -6 8 3 3 7 -10 11 -17 4 -21 3 -13 -5z"/>
<path d="M1888 5338 c6 -6 18 -8 28 -6 14 3 12 5 -9 10 -19 3 -25 2 -19 -4z"/>
<path d="M1985 5340 c-16 -7 -17 -9 -3 -9 9 -1 20 4 23 9 7 11 7 11 -20 0z"/>
<path d="M658 5333 c6 -2 18 -2 25 0 6 3 1 5 -13 5 -14 0 -19 -2 -12 -5z"/>
<path d="M1048 5333 c7 -3 16 -2 19 1 4 3 -2 6 -13 5 -11 0 -14 -3 -6 -6z"/>
<path d="M1438 5333 c7 -3 16 -2 19 1 4 3 -2 6 -13 5 -11 0 -14 -3 -6 -6z"/>
<path d="M1608 5333 c7 -3 16 -2 19 1 4 3 -2 6 -13 5 -11 0 -14 -3 -6 -6z"/>
<path d="M2278 5333 c7 -3 16 -2 19 1 4 3 -2 6 -13 5 -11 0 -14 -3 -6 -6z"/>
<path d="M596 5211 c-4 -5 3 -7 14 -4 23 6 26 13 6 13 -8 0 -17 -4 -20 -9z"/>
<path d="M716 5211 c-4 -5 3 -7 14 -4 23 6 26 13 6 13 -8 0 -17 -4 -20 -9z"/>
<path d="M796 5211 c-4 -5 3 -7 14 -4 23 6 26 13 6 13 -8 0 -17 -4 -20 -9z"/>
<path d="M882 5195 c0 -16 2 -22 5 -12 2 9 2 23 0 30 -3 6 -5 -1 -5 -18z"/>
<path d="M1000 5213 c8 -3 19 -11 23 -17 6 -7 7 -6 4 4 -2 8 -12 16 -23 17
-13 2 -15 1 -4 -4z"/>
<path d="M1058 5213 c6 -2 18 -2 25 0 6 3 1 5 -13 5 -14 0 -19 -2 -12 -5z"/>
<path d="M1128 5213 c12 -2 22 -8 22 -13 0 -5 -10 -11 -22 -13 -23 -4 -23 -4
-1 -6 12 0 24 -9 27 -18 2 -10 4 -2 3 17 -2 30 -6 35 -27 37 -22 1 -22 1 -2
-4z"/>
<path d="M1185 5210 c-8 -14 3 -30 21 -30 17 0 19 -17 2 -23 -9 -2 -8 -4 1 -3
23 2 25 27 2 33 -26 7 -27 20 -3 26 15 4 15 5 0 6 -9 0 -20 -3 -23 -9z"/>
<path d="M1296 5211 c-2 -3 18 -6 44 -6 26 0 46 3 44 6 -2 4 -22 6 -44 6 -22
0 -42 -2 -44 -6z"/>
<path d="M1430 5216 c0 -2 9 -6 20 -9 11 -3 18 -1 14 4 -5 9 -34 13 -34 5z"/>
<path d="M1495 5210 c-8 -14 3 -30 21 -30 17 0 19 -17 2 -23 -9 -2 -8 -4 1 -3
23 2 25 27 2 33 -26 7 -27 20 -3 26 15 4 15 5 0 6 -9 0 -20 -3 -23 -9z"/>
<path d="M1588 5213 c6 -2 18 -2 25 0 6 3 1 5 -13 5 -14 0 -19 -2 -12 -5z"/>
<path d="M1710 5216 c0 -2 9 -6 20 -9 11 -3 18 -1 14 4 -5 9 -34 13 -34 5z"/>
<path d="M1779 5203 c-12 -16 -12 -17 1 -7 8 6 22 14 30 17 13 5 12 6 -1 6 -9
1 -23 -7 -30 -16z"/>
<path d="M1852 5195 c0 -16 2 -22 5 -12 2 9 2 23 0 30 -3 6 -5 -1 -5 -18z"/>
<path d="M1940 5216 c0 -2 9 -6 20 -9 11 -3 18 -1 14 4 -5 9 -34 13 -34 5z"/>
<path d="M2040 5213 c8 -3 19 -11 23 -17 6 -7 7 -6 4 4 -2 8 -12 16 -23 17
-13 2 -15 1 -4 -4z"/>
<path d="M2098 5213 c6 -2 18 -2 25 0 6 3 1 5 -13 5 -14 0 -19 -2 -12 -5z"/>
<path d="M2160 5216 c0 -2 9 -6 20 -9 11 -3 18 -1 14 4 -5 9 -34 13 -34 5z"/>
<path d="M2238 5213 c7 -3 16 -2 19 1 4 3 -2 6 -13 5 -11 0 -14 -3 -6 -6z"/>
<path d="M2140 5185 c0 -7 11 -10 30 -7 17 2 30 5 30 7 0 2 -13 5 -30 7 -19 3
-30 0 -30 -7z"/>
<path d="M723 5183 c9 -2 25 -2 35 0 9 3 1 5 -18 5 -19 0 -27 -2 -17 -5z"/>
<path d="M1438 5183 c6 -2 18 -2 25 0 6 3 1 5 -13 5 -14 0 -19 -2 -12 -5z"/>
<path d="M1708 5183 c12 -2 30 -2 40 0 9 3 -1 5 -23 4 -22 0 -30 -2 -17 -4z"/>
<path d="M1938 5183 c12 -2 30 -2 40 0 9 3 -1 5 -23 4 -22 0 -30 -2 -17 -4z"/>
<path d="M931 5164 c0 -11 3 -14 6 -6 3 7 2 16 -1 19 -3 4 -6 -2 -5 -13z"/>
<path d="M1782 5164 c9 -9 21 -15 27 -13 6 2 -2 10 -17 17 -25 11 -25 11 -10
-4z"/>
<path d="M1891 5164 c0 -11 3 -14 6 -6 3 7 2 16 -1 19 -3 4 -6 -2 -5 -13z"/>
<path d="M2260 5172 c0 -7 -10 -13 -22 -13 -19 -1 -20 -2 -4 -6 20 -5 44 12
33 24 -4 3 -7 1 -7 -5z"/>
<path d="M598 5158 c5 -5 16 -8 23 -6 8 3 3 7 -10 11 -17 4 -21 3 -13 -5z"/>
<path d="M718 5158 c6 -6 18 -8 28 -6 14 3 12 5 -9 10 -19 3 -25 2 -19 -4z"/>
<path d="M798 5158 c5 -5 16 -8 23 -6 8 3 3 7 -10 11 -17 4 -21 3 -13 -5z"/>
<path d="M1067 5159 c7 -7 15 -10 18 -7 3 3 -2 9 -12 12 -14 6 -15 5 -6 -5z"/>
<path d="M1708 5158 c5 -5 16 -8 23 -6 8 3 3 7 -10 11 -17 4 -21 3 -13 -5z"/>
<path d="M1938 5158 c5 -5 16 -8 23 -6 8 3 3 7 -10 11 -17 4 -21 3 -13 -5z"/>
<path d="M2107 5159 c7 -7 15 -10 18 -7 3 3 -2 9 -12 12 -14 6 -15 5 -6 -5z"/>
<path d="M898 5153 c7 -3 16 -2 19 1 4 3 -2 6 -13 5 -11 0 -14 -3 -6 -6z"/>
<path d="M1118 5153 c7 -3 16 -2 19 1 4 3 -2 6 -13 5 -11 0 -14 -3 -6 -6z"/>
<path d="M2168 5153 c7 -3 16 -2 19 1 4 3 -2 6 -13 5 -11 0 -14 -3 -6 -6z"/>
<path d="M820 5130 c-23 -7 -23 -8 -3 -9 12 -1 25 4 28 9 3 6 5 10 3 9 -2 -1
-14 -5 -28 -9z"/>
<path d="M698 5013 c-2 -21 -8 -28 -25 -27 -12 0 -20 -3 -17 -8 3 -4 16 -7 29
-6 21 2 25 8 25 35 0 40 -7 43 -12 6z"/>
<path d="M768 5033 c6 -2 18 -2 25 0 6 3 1 5 -13 5 -14 0 -19 -2 -12 -5z"/>
<path d="M822 5015 c0 -16 2 -22 5 -12 2 9 2 23 0 30 -3 6 -5 -1 -5 -18z"/>
<path d="M970 5036 c0 -2 9 -6 20 -9 11 -3 18 -1 14 4 -5 9 -34 13 -34 5z"/>
<path d="M1098 5033 c6 -2 18 -2 25 0 6 3 1 5 -13 5 -14 0 -19 -2 -12 -5z"/>
<path d="M1152 5015 c0 -16 2 -22 5 -12 2 9 2 23 0 30 -3 6 -5 -1 -5 -18z"/>
<path d="M1325 5030 c-8 -14 3 -30 21 -30 17 0 19 -17 2 -23 -9 -2 -8 -4 1 -3
23 2 25 27 2 33 -26 7 -27 20 -3 26 15 4 15 5 0 6 -9 0 -20 -3 -23 -9z"/>
<path d="M1420 5033 c8 -3 19 -11 23 -17 6 -7 7 -6 4 4 -2 8 -12 16 -23 17
-13 2 -15 1 -4 -4z"/>
<path d="M1470 5033 c8 -3 19 -11 23 -17 6 -7 7 -6 4 4 -2 8 -12 16 -23 17
-13 2 -15 1 -4 -4z"/>
<path d="M1550 5033 c8 -3 22 -11 30 -17 13 -10 13 -9 1 7 -7 9 -21 17 -30 16
-13 0 -14 -1 -1 -6z"/>
<path d="M1828 5033 c7 -3 16 -2 19 1 4 3 -2 6 -13 5 -11 0 -14 -3 -6 -6z"/>
<path d="M1928 5013 c-2 -21 -8 -28 -25 -27 -12 0 -20 -3 -17 -8 3 -4 16 -7
29 -6 21 2 25 8 25 35 0 40 -7 43 -12 6z"/>
<path d="M1988 5033 c7 -3 16 -2 19 1 4 3 -2 6 -13 5 -11 0 -14 -3 -6 -6z"/>
<path d="M2047 5033 c-3 -5 5 -8 18 -8 13 0 21 3 18 8 -2 4 -10 7 -18 7 -8 0
-16 -3 -18 -7z"/>
<path d="M2130 5036 c0 -2 9 -6 20 -9 11 -3 18 -1 14 4 -5 9 -34 13 -34 5z"/>
<path d="M2195 5030 c-9 -14 1 -27 25 -33 11 -3 18 -1 14 4 -3 5 -12 9 -20 9
-23 0 -16 18 9 23 22 4 22 4 0 6 -12 0 -25 -3 -28 -9z"/>
<path d="M978 5003 c6 -2 18 -2 25 0 6 3 1 5 -13 5 -14 0 -19 -2 -12 -5z"/>
<path d="M2125 5000 c-3 -5 -3 -14 0 -20 8 -12 32 -13 39 -1 4 5 -3 7 -14 4
-11 -3 -20 -1 -20 5 0 6 10 13 23 15 22 4 22 4 0 6 -12 0 -25 -3 -28 -9z"/>
<path d="M871 4984 c0 -11 3 -14 6 -6 3 7 2 16 -1 19 -3 4 -6 -2 -5 -13z"/>
<path d="M1201 4984 c0 -11 3 -14 6 -6 3 7 2 16 -1 19 -3 4 -6 -2 -5 -13z"/>
<path d="M1560 4984 c-17 -9 -20 -14 -9 -14 9 0 22 7 29 15 15 18 13 18 -20
-1z"/>
<path d="M777 4979 c7 -7 15 -10 18 -7 3 3 -2 9 -12 12 -14 6 -15 5 -6 -5z"/>
<path d="M1107 4979 c7 -7 15 -10 18 -7 3 3 -2 9 -12 12 -14 6 -15 5 -6 -5z"/>
<path d="M838 4973 c7 -3 16 -2 19 1 4 3 -2 6 -13 5 -11 0 -14 -3 -6 -6z"/>
<path d="M1168 4973 c7 -3 16 -2 19 1 4 3 -2 6 -13 5 -11 0 -14 -3 -6 -6z"/>
<path d="M1988 4973 c7 -3 16 -2 19 1 4 3 -2 6 -13 5 -11 0 -14 -3 -6 -6z"/>
<path d="M2208 4973 c7 -3 16 -2 19 1 4 3 -2 6 -13 5 -11 0 -14 -3 -6 -6z"/>
<path d="M595 4850 c-3 -6 1 -7 9 -4 18 7 21 14 7 14 -6 0 -13 -4 -16 -10z"/>
<path d="M637 4853 c-3 -5 5 -8 18 -8 13 0 21 3 18 8 -2 4 -10 7 -18 7 -8 0
-16 -3 -18 -7z"/>
<path d="M720 4856 c0 -2 9 -6 20 -9 11 -3 18 -1 14 4 -5 9 -34 13 -34 5z"/>
<path d="M785 4850 c-9 -14 1 -27 25 -33 11 -3 18 -1 14 4 -3 5 -12 9 -20 9
-23 0 -16 18 9 23 22 4 22 4 0 6 -12 0 -25 -3 -28 -9z"/>
<path d="M885 4850 c-8 -14 3 -30 21 -30 17 0 19 -17 2 -23 -9 -2 -8 -4 1 -3
23 2 25 27 2 33 -26 7 -27 20 -3 26 15 4 15 5 0 6 -9 0 -20 -3 -23 -9z"/>
<path d="M949 4843 c-12 -16 -12 -17 1 -7 8 6 22 14 30 17 13 5 12 6 -1 6 -9
1 -23 -7 -30 -16z"/>
<path d="M1040 4850 c-24 -15 -7 -18 20 -3 14 7 18 13 10 13 -8 0 -22 -4 -30
-10z"/>
<path d="M1180 4856 c0 -2 9 -6 20 -9 11 -3 18 -1 14 4 -5 9 -34 13 -34 5z"/>
<path d="M1313 4852 c9 -2 17 -8 17 -14 0 -6 6 -6 15 2 8 7 22 10 30 6 9 -3
14 -2 11 3 -3 4 -25 8 -48 8 -24 0 -35 -2 -25 -5z"/>
<path d="M1510 4856 c0 -2 9 -6 20 -9 11 -3 18 -1 14 4 -5 9 -34 13 -34 5z"/>
<path d="M1588 4853 c6 -2 18 -2 25 0 6 3 1 5 -13 5 -14 0 -19 -2 -12 -5z"/>
<path d="M1685 4850 c-9 -14 1 -27 25 -33 11 -3 18 -1 14 4 -3 5 -12 9 -20 9
-23 0 -16 18 9 23 22 4 22 4 0 6 -12 0 -25 -3 -28 -9z"/>
<path d="M1880 4856 c0 -2 7 -7 16 -10 8 -3 12 -2 9 4 -6 10 -25 14 -25 6z"/>
<path d="M1970 4853 c8 -3 19 -11 23 -17 6 -7 7 -6 4 4 -2 8 -12 16 -23 17
-13 2 -15 1 -4 -4z"/>
<path d="M2040 4856 c0 -2 9 -6 20 -9 11 -3 18 -1 14 4 -5 9 -34 13 -34 5z"/>
<path d="M2113 4853 c9 -2 23 -2 30 0 6 3 -1 5 -18 5 -16 0 -22 -2 -12 -5z"/>
<path d="M2172 4835 c0 -16 2 -22 5 -12 2 9 2 23 0 30 -3 6 -5 -1 -5 -18z"/>
<path d="M2270 4856 c0 -2 9 -6 20 -9 11 -3 18 -1 14 4 -5 9 -34 13 -34 5z"/>
<path d="M2380 4856 c0 -2 9 -6 20 -9 11 -3 18 -1 14 4 -5 9 -34 13 -34 5z"/>
<path d="M1600 4831 c-27 -7 -35 -35 -10 -37 9 0 10 1 3 3 -20 7 -15 23 6 23
11 0 22 -8 24 -17 3 -11 5 -7 6 10 0 15 0 27 -1 26 -2 -1 -14 -4 -28 -8z"/>
<path d="M2020 4825 c0 -7 11 -10 30 -7 17 2 30 5 30 7 0 2 -13 5 -30 7 -19 3
-30 0 -30 -7z"/>
<path d="M728 4823 c6 -2 18 -2 25 0 6 3 1 5 -13 5 -14 0 -19 -2 -12 -5z"/>
<path d="M1178 4823 c12 -2 30 -2 40 0 9 3 -1 5 -23 4 -22 0 -30 -2 -17 -4z"/>
<path d="M1873 4823 c9 -2 25 -2 35 0 9 3 1 5 -18 5 -19 0 -27 -2 -17 -5z"/>
<path d="M2112 4818 c-19 -19 -14 -28 16 -27 24 2 24 2 4 6 -19 4 -21 7 -11
19 14 17 8 19 -9 2z"/>
<path d="M2268 4823 c12 -2 30 -2 40 0 9 3 -1 5 -23 4 -22 0 -30 -2 -17 -4z"/>
<path d="M2388 4823 c6 -2 18 -2 25 0 6 3 1 5 -13 5 -14 0 -19 -2 -12 -5z"/>
<path d="M952 4804 c9 -9 21 -15 27 -13 6 2 -2 10 -17 17 -25 11 -25 11 -10
-4z"/>
<path d="M1030 4810 c0 -9 39 -25 45 -18 2 2 -7 8 -21 15 -13 6 -24 7 -24 3z"/>
<path d="M2221 4804 c0 -11 3 -14 6 -6 3 7 2 16 -1 19 -3 4 -6 -2 -5 -13z"/>
<path d="M1178 4798 c5 -5 16 -8 23 -6 8 3 3 7 -10 11 -17 4 -21 3 -13 -5z"/>
<path d="M1525 4800 c-16 -7 -17 -9 -3 -9 9 -1 20 4 23 9 7 11 7 11 -20 0z"/>
<path d="M1810 4799 c0 -5 5 -7 10 -4 6 3 10 8 10 11 0 2 -4 4 -10 4 -5 0 -10
-5 -10 -11z"/>
<path d="M2268 4798 c5 -5 16 -8 23 -6 8 3 3 7 -10 11 -17 4 -21 3 -13 -5z"/>
<path d="M798 4793 c7 -3 16 -2 19 1 4 3 -2 6 -13 5 -11 0 -14 -3 -6 -6z"/>
<path d="M1698 4793 c7 -3 16 -2 19 1 4 3 -2 6 -13 5 -11 0 -14 -3 -6 -6z"/>
<path d="M2048 4793 c7 -3 16 -2 19 1 4 3 -2 6 -13 5 -11 0 -14 -3 -6 -6z"/>
<path d="M2188 4793 c7 -3 16 -2 19 1 4 3 -2 6 -13 5 -11 0 -14 -3 -6 -6z"/>
<path d="M1643 4305 c0 -33 2 -45 4 -27 2 18 2 45 0 60 -2 15 -4 0 -4 -33z"/>
<path d="M714 4335 c-7 -18 12 -45 32 -45 8 0 14 -7 14 -15 0 -19 -5 -19 -51
3 -42 19 -48 28 -21 35 10 3 6 5 -10 6 -25 1 -28 -2 -28 -34 0 -32 3 -35 28
-34 16 1 20 3 10 6 -10 2 -18 9 -18 14 0 15 26 10 40 -7 17 -19 64 -14 68 8 2
11 -8 23 -28 33 -17 9 -28 20 -25 25 8 13 35 13 35 0 0 -5 4 -10 10 -10 5 0 7
7 4 15 -8 20 -53 19 -60 0z"/>
<path d="M870 4300 c0 -49 1 -50 30 -50 23 0 31 5 36 25 7 29 -12 59 -33 51
-7 -3 -13 1 -13 9 0 8 -4 15 -10 15 -5 0 -10 -22 -10 -50z m50 -16 c0 -31 -23
-28 -28 4 -2 15 2 22 12 22 11 0 16 -9 16 -26z"/>
<path d="M1103 4338 c2 -7 10 -30 18 -50 7 -21 16 -38 20 -38 7 0 39 74 39 91
0 21 -19 -2 -25 -31 -8 -36 -21 -31 -30 10 -4 17 -11 30 -17 30 -6 0 -8 -6 -5
-12z"/>
<path d="M805 4316 c-26 -19 -13 -66 19 -66 37 0 50 52 17 69 -13 7 -23 6 -36
-3z m35 -31 c0 -16 -6 -25 -15 -25 -9 0 -15 9 -15 25 0 16 6 25 15 25 9 0 15
-9 15 -25z"/>
<path d="M950 4288 c0 -21 5 -38 10 -38 6 0 10 14 10 30 0 17 5 30 10 30 6 0
10 4 10 8 0 4 -9 8 -20 8 -16 0 -20 -7 -20 -38z"/>
<path d="M1006 4314 c-19 -19 -20 -36 -4 -52 14 -14 48 -16 48 -2 0 5 -6 7
-14 4 -8 -3 -17 -1 -21 5 -4 7 4 11 19 11 31 0 35 25 7 40 -15 7 -23 6 -35 -6z
m31 -10 c-3 -3 -12 -4 -19 -1 -8 3 -5 6 6 6 11 1 17 -2 13 -5z"/>
<path d="M1200 4316 c-27 -34 12 -88 43 -57 7 7 4 8 -10 5 -12 -3 -24 -1 -27
5 -5 7 3 11 18 11 19 0 26 5 26 19 0 10 -7 22 -16 25 -21 8 -20 8 -34 -8z"/>
<path d="M1272 4286 c1 -37 2 -38 5 -8 6 42 33 44 33 2 0 -16 5 -30 10 -30 14
0 12 56 -2 67 -7 6 -21 10 -30 10 -15 0 -18 -8 -16 -41z"/>
<path d="M1354 4316 c-26 -20 -12 -66 21 -66 14 0 25 4 25 9 0 5 -9 7 -20 4
-11 -3 -20 0 -20 6 0 6 11 11 24 11 19 0 23 4 19 19 -7 26 -27 33 -49 17z m33
-12 c-3 -3 -12 -4 -19 -1 -8 3 -5 6 6 6 11 1 17 -2 13 -5z"/>
<path d="M1420 4320 c0 -5 7 -10 16 -10 13 0 12 -5 -6 -30 l-21 -30 38 1 c23
1 29 3 16 6 -27 5 -29 16 -8 33 23 19 18 40 -10 40 -14 0 -25 -4 -25 -10z"/>
<path d="M1492 4293 c-2 -41 -1 -43 28 -43 28 0 30 3 30 34 0 19 -4 38 -10 41
-6 4 -10 -8 -10 -29 0 -51 -27 -49 -33 2 l-4 37 -1 -42z"/>
<path d="M1574 4316 c-26 -20 -12 -66 21 -66 14 0 25 4 25 9 0 5 -9 7 -20 4
-11 -3 -20 0 -20 6 0 6 11 11 24 11 19 0 23 4 19 19 -7 26 -27 33 -49 17z m33
-12 c-3 -3 -12 -4 -19 -1 -8 3 -5 6 6 6 11 1 17 -2 13 -5z"/>
<path d="M1679 4314 c-11 -13 -9 -15 17 -9 l29 6 -28 -16 c-34 -19 -31 -39 6
-43 25 -3 27 0 27 31 0 23 -6 37 -16 41 -21 8 -20 8 -35 -10z m36 -44 c-3 -5
-10 -10 -16 -10 -5 0 -9 5 -9 10 0 6 7 10 16 10 8 0 12 -4 9 -10z"/>
<path d="M584 4311 c3 -4 10 -21 16 -36 12 -32 24 -25 34 20 6 29 6 30 -7 6
-14 -23 -14 -23 -20 -2 -3 11 -10 21 -17 21 -6 0 -9 -4 -6 -9z"/>
<path d="M1558 4103 c12 -2 30 -2 40 0 9 3 -1 5 -23 4 -22 0 -30 -2 -17 -4z"/>
<path d="M888 4053 c7 -3 16 -2 19 1 4 3 -2 6 -13 5 -11 0 -14 -3 -6 -6z"/>
<path d="M1438 4053 c7 -3 16 -2 19 1 4 3 -2 6 -13 5 -11 0 -14 -3 -6 -6z"/>
<path d="M1688 4053 c6 -2 18 -2 25 0 6 3 1 5 -13 5 -14 0 -19 -2 -12 -5z"/>
<path d="M2153 4053 c9 -2 23 -2 30 0 6 3 -1 5 -18 5 -16 0 -22 -2 -12 -5z"/>
<path d="M2578 4053 c7 -3 16 -2 19 1 4 3 -2 6 -13 5 -11 0 -14 -3 -6 -6z"/>
<path d="M785 3910 c-3 -6 1 -7 9 -4 18 7 21 14 7 14 -6 0 -13 -4 -16 -10z"/>
<path d="M2038 3913 c7 -3 16 -2 19 1 4 3 -2 6 -13 5 -11 0 -14 -3 -6 -6z"/>
<path d="M2758 3913 c7 -3 16 -2 19 1 4 3 -2 6 -13 5 -11 0 -14 -3 -6 -6z"/>
<path d="M988 3883 c6 -2 18 -2 25 0 6 3 1 5 -13 5 -14 0 -19 -2 -12 -5z"/>
<path d="M1228 3883 c7 -3 16 -2 19 1 4 3 -2 6 -13 5 -11 0 -14 -3 -6 -6z"/>
<path d="M1818 3883 c7 -3 16 -2 19 1 4 3 -2 6 -13 5 -11 0 -14 -3 -6 -6z"/>
<path d="M2178 3883 c6 -2 18 -2 25 0 6 3 1 5 -13 5 -14 0 -19 -2 -12 -5z"/>
<path d="M2938 3883 c7 -3 16 -2 19 1 4 3 -2 6 -13 5 -11 0 -14 -3 -6 -6z"/>
<path d="M691 3446 c-11 -13 -61 -13 -82 -1 -5 4 -9 -5 -9 -19 0 -14 8 -30 19
-35 28 -15 35 1 9 21 -23 17 -23 17 15 11 28 -4 42 -1 57 12 16 14 23 16 32 7
9 -9 7 -17 -10 -34 -18 -20 -20 -29 -12 -63 8 -36 7 -38 -5 -21 -8 10 -16 24
-18 30 -5 15 -37 -12 -37 -31 0 -12 -3 -12 -16 1 -9 10 -13 24 -9 36 4 14 2
20 -9 20 -26 0 -18 -67 8 -74 35 -10 46 -7 46 12 1 16 1 16 11 0 5 -10 19 -18
30 -18 17 0 19 5 15 47 -4 33 -1 52 10 64 8 9 12 24 8 33 -7 20 -37 21 -53 2z"/>
<path d="M1813 3385 c0 -33 2 -45 4 -27 2 18 2 45 0 60 -2 15 -4 0 -4 -33z"/>
<path d="M770 3427 c0 -15 34 -97 40 -97 10 0 42 91 35 98 -3 3 -10 -9 -16
-26 -14 -40 -24 -40 -38 -2 -8 24 -21 41 -21 27z"/>
<path d="M1273 3418 c2 -7 10 -30 18 -50 7 -21 16 -38 20 -38 7 0 39 74 39 91
0 21 -19 -2 -25 -31 -8 -36 -21 -31 -30 10 -4 17 -11 30 -17 30 -6 0 -8 -6 -5
-12z"/>
<path d="M867 3403 c-11 -10 -8 -73 3 -73 6 0 10 18 10 40 0 41 -2 45 -13 33z"/>
<path d="M913 3403 c-22 -8 -14 -21 10 -16 19 4 19 2 -5 -12 -34 -19 -27 -45
11 -45 26 0 28 2 22 37 -6 37 -15 46 -38 36z m22 -53 c-3 -5 -10 -10 -16 -10
-5 0 -9 5 -9 10 0 6 7 10 16 10 8 0 12 -4 9 -10z"/>
<path d="M978 3400 c-10 -23 -14 -100 -5 -100 13 0 18 25 15 71 -2 25 -6 38
-10 29z"/>
<path d="M1023 3403 c-22 -8 -14 -21 10 -16 19 4 19 2 -5 -12 -34 -19 -27 -45
11 -45 26 0 28 2 22 37 -6 37 -15 46 -38 36z m22 -53 c-3 -5 -10 -10 -16 -10
-5 0 -9 5 -9 10 0 6 7 10 16 10 8 0 12 -4 9 -10z"/>
<path d="M1085 3402 c-9 -10 -5 -72 5 -72 6 0 10 14 10 30 0 17 5 30 10 30 6
0 10 4 10 8 0 9 -27 12 -35 4z"/>
<path d="M1169 3394 c-11 -13 -9 -15 17 -9 l29 6 -28 -16 c-34 -19 -31 -39 6
-43 25 -3 27 0 27 31 0 23 -6 37 -16 41 -21 8 -20 8 -35 -10z m36 -44 c-3 -5
-10 -10 -16 -10 -5 0 -9 5 -9 10 0 6 7 10 16 10 8 0 12 -4 9 -10z"/>
<path d="M1370 3396 c-27 -34 12 -88 43 -57 7 7 4 8 -10 5 -12 -3 -24 -1 -27
5 -5 7 3 11 18 11 19 0 26 5 26 19 0 10 -7 22 -16 25 -21 8 -20 8 -34 -8z"/>
<path d="M1442 3366 c1 -37 2 -38 5 -8 6 42 33 44 33 2 0 -16 5 -30 10 -30 14
0 12 56 -2 67 -7 6 -21 10 -30 10 -15 0 -18 -8 -16 -41z"/>
<path d="M1524 3396 c-26 -20 -12 -66 21 -66 14 0 25 4 25 9 0 5 -9 7 -20 4
-11 -3 -20 0 -20 6 0 6 11 11 24 11 19 0 23 4 19 19 -7 26 -27 33 -49 17z m33
-12 c-3 -3 -12 -4 -19 -1 -8 3 -5 6 6 6 11 1 17 -2 13 -5z"/>
<path d="M1585 3400 c-3 -6 4 -10 16 -10 20 0 21 -2 7 -17 -31 -37 -31 -43 4
-42 18 1 25 3 16 6 -22 5 -22 12 -3 37 8 11 15 23 15 28 0 12 -48 10 -55 -2z"/>
<path d="M1662 3373 c-2 -41 -1 -43 28 -43 28 0 30 3 30 34 0 19 -4 38 -10 41
-6 4 -10 -8 -10 -29 0 -51 -27 -49 -33 2 l-4 37 -1 -42z"/>
<path d="M1744 3396 c-26 -20 -12 -66 21 -66 14 0 25 4 25 9 0 5 -9 7 -20 4
-11 -3 -20 0 -20 6 0 6 11 11 24 11 19 0 23 4 19 19 -7 26 -27 33 -49 17z m33
-12 c-3 -3 -12 -4 -19 -1 -8 3 -5 6 6 6 11 1 17 -2 13 -5z"/>
<path d="M1848 3393 c-11 -14 -10 -15 12 -9 25 6 25 6 2 -6 -28 -14 -25 -42 6
-46 19 -3 22 1 22 31 0 39 -21 55 -42 30z m32 -37 c0 -11 -19 -15 -25 -6 -3 5
1 10 9 10 9 0 16 -2 16 -4z"/>
<path d="M608 3173 c6 -2 18 -2 25 0 6 3 1 5 -13 5 -14 0 -19 -2 -12 -5z"/>
<path d="M608 3133 c7 -3 16 -2 19 1 4 3 -2 6 -13 5 -11 0 -14 -3 -6 -6z"/>
<path d="M958 3123 c7 -3 16 -2 19 1 4 3 -2 6 -13 5 -11 0 -14 -3 -6 -6z"/>
<path d="M1053 3123 c9 -2 23 -2 30 0 6 3 -1 5 -18 5 -16 0 -22 -2 -12 -5z"/>
<path d="M1313 3123 c9 -2 23 -2 30 0 6 3 -1 5 -18 5 -16 0 -22 -2 -12 -5z"/>
<path d="M1583 3123 c9 -2 23 -2 30 0 6 3 -1 5 -18 5 -16 0 -22 -2 -12 -5z"/>
<path d="M1888 3123 c7 -3 16 -2 19 1 4 3 -2 6 -13 5 -11 0 -14 -3 -6 -6z"/>
<path d="M2078 3123 c7 -3 16 -2 19 1 4 3 -2 6 -13 5 -11 0 -14 -3 -6 -6z"/>
<path d="M2198 3123 c7 -3 16 -2 19 1 4 3 -2 6 -13 5 -11 0 -14 -3 -6 -6z"/>
<path d="M2408 3123 c7 -3 16 -2 19 1 4 3 -2 6 -13 5 -11 0 -14 -3 -6 -6z"/>
<path d="M2518 3123 c7 -3 16 -2 19 1 4 3 -2 6 -13 5 -11 0 -14 -3 -6 -6z"/>
<path d="M2788 3123 c7 -3 16 -2 19 1 4 3 -2 6 -13 5 -11 0 -14 -3 -6 -6z"/>
<path d="M608 3083 c6 -2 18 -2 25 0 6 3 1 5 -13 5 -14 0 -19 -2 -12 -5z"/>
<path d="M673 2953 c9 -2 23 -2 30 0 6 3 -1 5 -18 5 -16 0 -22 -2 -12 -5z"/>
<path d="M973 2953 c9 -2 23 -2 30 0 6 3 -1 5 -18 5 -16 0 -22 -2 -12 -5z"/>
<path d="M1478 2953 c7 -3 16 -2 19 1 4 3 -2 6 -13 5 -11 0 -14 -3 -6 -6z"/>
<path d="M1583 2953 c9 -2 23 -2 30 0 6 3 -1 5 -18 5 -16 0 -22 -2 -12 -5z"/>
<path d="M1968 2953 c7 -3 16 -2 19 1 4 3 -2 6 -13 5 -11 0 -14 -3 -6 -6z"/>
<path d="M2328 2953 c6 -2 18 -2 25 0 6 3 1 5 -13 5 -14 0 -19 -2 -12 -5z"/>
<path d="M2683 2953 c9 -2 23 -2 30 0 6 3 -1 5 -18 5 -16 0 -22 -2 -12 -5z"/>
<path d="M2768 2953 c6 -2 18 -2 25 0 6 3 1 5 -13 5 -14 0 -19 -2 -12 -5z"/>
<path d="M1243 2913 c9 -2 23 -2 30 0 6 3 -1 5 -18 5 -16 0 -22 -2 -12 -5z"/>
<path d="M2503 2913 c9 -2 23 -2 30 0 6 3 -1 5 -18 5 -16 0 -22 -2 -12 -5z"/>
<path d="M673 2783 c9 -2 23 -2 30 0 6 3 -1 5 -18 5 -16 0 -22 -2 -12 -5z"/>
<path d="M793 2783 c9 -2 23 -2 30 0 6 3 -1 5 -18 5 -16 0 -22 -2 -12 -5z"/>
<path d="M878 2783 c7 -3 16 -2 19 1 4 3 -2 6 -13 5 -11 0 -14 -3 -6 -6z"/>
<path d="M1163 2783 c9 -2 23 -2 30 0 6 3 -1 5 -18 5 -16 0 -22 -2 -12 -5z"/>
<path d="M1558 2783 c6 -2 18 -2 25 0 6 3 1 5 -13 5 -14 0 -19 -2 -12 -5z"/>
<path d="M630 2350 c0 -11 -7 -20 -15 -20 -12 0 -15 -13 -15 -60 l0 -60 75 0
75 0 0 80 0 80 -60 0 c-53 0 -60 -2 -60 -20z m70 -20 c0 -13 7 -20 20 -20 17
0 20 -7 20 -45 l0 -45 -65 0 -65 0 0 45 c0 33 4 45 15 45 8 0 15 9 15 20 0 16
7 20 30 20 23 0 30 -4 30 -20z"/>
<path d="M653 2263 c9 -2 23 -2 30 0 6 3 -1 5 -18 5 -16 0 -22 -2 -12 -5z"/>
<path d="M1077 2343 c-11 -10 -8 -103 3 -103 6 0 10 25 10 55 0 56 -1 60 -13
48z"/>
<path d="M783 2290 c0 -30 2 -45 4 -32 3 15 11 22 28 22 17 0 25 -7 28 -22 2
-13 4 2 4 32 0 30 -2 45 -4 33 -3 -16 -11 -23 -28 -23 -17 0 -25 7 -28 23 -2
12 -4 -3 -4 -33z"/>
<path d="M2020 2325 c0 -8 -3 -14 -7 -14 -21 3 -32 -3 -38 -21 -9 -27 11 -50
41 -50 22 0 24 4 24 50 0 28 -4 50 -10 50 -5 0 -10 -7 -10 -15z m0 -51 c0 -31
-23 -28 -28 4 -2 15 2 22 12 22 11 0 16 -9 16 -26z"/>
<path d="M957 2323 c-2 -5 -2 -25 0 -45 4 -27 10 -38 22 -38 13 0 13 2 2 9 -9
6 -12 19 -8 40 6 28 -6 52 -16 34z"/>
<path d="M885 2306 c-26 -19 -13 -66 19 -66 37 0 50 52 17 69 -13 7 -23 6 -36
-3z m35 -31 c0 -16 -6 -25 -15 -25 -9 0 -15 9 -15 25 0 16 6 25 15 25 9 0 15
-9 15 -25z"/>
<path d="M1012 2311 c-20 -12 -11 -65 12 -69 10 -2 23 2 30 8 8 9 6 11 -11 6
-12 -4 -24 -2 -28 4 -4 6 4 10 19 10 28 0 34 18 14 38 -14 14 -19 15 -36 3z
m25 -17 c-3 -3 -12 -4 -19 -1 -8 3 -5 6 6 6 11 1 17 -2 13 -5z"/>
<path d="M1116 2304 c-19 -19 -20 -36 -4 -52 14 -14 48 -16 48 -2 0 5 -6 7
-14 4 -8 -3 -17 -1 -21 5 -4 7 4 11 19 11 31 0 35 25 7 40 -15 7 -23 6 -35 -6z
m31 -10 c-3 -3 -12 -4 -19 -1 -8 3 -5 6 6 6 11 1 17 -2 13 -5z"/>
<path d="M1193 2313 c-20 -7 -15 -31 7 -38 11 -3 20 -11 20 -16 0 -6 -9 -7
-21 -4 -15 5 -19 4 -15 -4 9 -14 43 -14 52 0 4 7 -4 20 -17 31 l-24 19 25 -7
c22 -6 23 -5 11 10 -14 17 -18 18 -38 9z"/>
<path d="M1281 2317 c-1 -4 5 -23 13 -42 13 -31 13 -37 0 -50 -13 -13 -13 -15
-1 -15 8 0 22 19 31 43 19 51 21 82 2 49 l-13 -24 -16 24 c-9 13 -16 19 -16
15z"/>
<path d="M1403 2313 c-22 -8 -14 -21 10 -17 l22 5 -22 -12 c-35 -18 -30 -49 7
-49 26 0 30 4 30 28 0 15 -5 33 -12 40 -13 13 -16 13 -35 5z m27 -53 c0 -5 -4
-10 -9 -10 -6 0 -13 5 -16 10 -3 6 1 10 9 10 9 0 16 -4 16 -10z"/>
<path d="M1475 2303 c-25 -24 -14 -63 17 -63 10 0 17 -4 13 -10 -3 -5 -13 -6
-23 -3 -14 5 -15 4 -4 -8 21 -23 47 2 50 48 3 34 0 41 -18 46 -11 3 -27 -1
-35 -10z m35 -29 c0 -31 -23 -28 -28 4 -2 15 2 22 12 22 11 0 16 -9 16 -26z"/>
<path d="M1554 2306 c-26 -20 -12 -66 21 -66 14 0 25 4 25 9 0 5 -9 7 -20 4
-11 -3 -20 0 -20 6 0 6 11 11 24 11 19 0 23 4 19 19 -7 26 -27 33 -49 17z m33
-12 c-3 -3 -12 -4 -19 -1 -8 3 -5 6 6 6 11 1 17 -2 13 -5z"/>
<path d="M1621 2276 c1 -37 2 -38 8 -12 9 41 31 46 31 7 0 -17 5 -31 10 -31
14 0 12 57 -2 66 -7 5 -21 9 -30 9 -15 1 -18 -6 -17 -39z"/>
<path d="M1706 2304 c-19 -19 -20 -36 -4 -52 14 -14 48 -16 48 -3 0 5 -8 8
-17 7 -12 -1 -19 7 -21 23 -3 21 -1 23 24 17 24 -6 26 -5 15 8 -17 20 -26 20
-45 0z"/>
<path d="M1773 2280 c0 -25 2 -35 4 -22 2 12 2 32 0 45 -2 12 -4 2 -4 -23z"/>
<path d="M1809 2304 c-11 -13 -9 -15 17 -9 l29 6 -28 -16 c-34 -19 -31 -39 6
-43 25 -3 27 0 27 31 0 23 -6 37 -16 41 -21 8 -20 8 -35 -10z m36 -44 c-3 -5
-10 -10 -16 -10 -5 0 -9 5 -9 10 0 6 7 10 16 10 8 0 12 -4 9 -10z"/>
<path d="M1883 2309 c-14 -14 -6 -39 13 -39 8 0 14 -5 14 -11 0 -6 -9 -8 -22
-4 -18 6 -20 4 -12 -5 14 -14 46 -10 51 7 2 6 -8 19 -24 28 -24 14 -25 16 -5
11 14 -3 22 0 19 7 -5 16 -21 19 -34 6z"/>
<path d="M2064 2306 c-26 -20 -12 -66 21 -66 14 0 25 4 25 9 0 5 -9 7 -20 4
-11 -3 -20 0 -20 6 0 6 11 11 24 11 19 0 23 4 19 19 -7 26 -27 33 -49 17z m33
-12 c-3 -3 -12 -4 -19 -1 -8 3 -5 6 6 6 11 1 17 -2 13 -5z"/>
<path d="M2161 2314 c-1 -18 20 -74 28 -74 9 0 32 72 25 79 -3 3 -7 -5 -11
-17 -7 -28 -17 -28 -31 1 -6 12 -11 17 -11 11z"/>
<path d="M2283 2313 c-22 -8 -14 -21 10 -16 19 4 19 2 -5 -12 -34 -19 -27 -45
11 -45 26 0 28 2 22 37 -6 37 -15 46 -38 36z m22 -53 c-3 -5 -10 -10 -16 -10
-5 0 -9 5 -9 10 0 6 7 10 16 10 8 0 12 -4 9 -10z"/>
<path d="M2384 2306 c-26 -20 -12 -66 21 -66 14 0 25 4 25 9 0 5 -9 7 -20 4
-11 -3 -20 0 -20 6 0 6 11 11 24 11 19 0 23 4 19 19 -7 26 -27 33 -49 17z m33
-12 c-3 -3 -12 -4 -19 -1 -8 3 -5 6 6 6 11 1 17 -2 13 -5z"/>
<path d="M2461 2311 c-17 -11 -7 -41 14 -41 8 0 15 -5 15 -11 0 -6 -9 -8 -20
-4 -12 4 -20 2 -20 -5 0 -15 52 -9 57 7 2 6 -8 19 -24 28 -24 14 -25 16 -5 11
14 -3 22 0 19 7 -5 15 -19 18 -36 8z"/>
<path d="M2230 2275 c0 -19 5 -35 10 -35 6 0 10 16 10 35 0 19 -4 35 -10 35
-5 0 -10 -16 -10 -35z"/>
<path d="M2338 2260 c-2 -30 1 -49 7 -47 13 5 19 97 7 97 -6 0 -12 -23 -14
-50z"/>
<path d="M613 2043 c9 -2 23 -2 30 0 6 3 -1 5 -18 5 -16 0 -22 -2 -12 -5z"/>
<path d="M823 2033 c9 -2 23 -2 30 0 6 3 -1 5 -18 5 -16 0 -22 -2 -12 -5z"/>
<path d="M933 2033 c9 -2 23 -2 30 0 6 3 -1 5 -18 5 -16 0 -22 -2 -12 -5z"/>
<path d="M1218 2033 c6 -2 18 -2 25 0 6 3 1 5 -13 5 -14 0 -19 -2 -12 -5z"/>
<path d="M1363 2033 c9 -2 23 -2 30 0 6 3 -1 5 -18 5 -16 0 -22 -2 -12 -5z"/>
<path d="M1638 2033 c7 -3 16 -2 19 1 4 3 -2 6 -13 5 -11 0 -14 -3 -6 -6z"/>
<path d="M1878 2033 c6 -2 18 -2 25 0 6 3 1 5 -13 5 -14 0 -19 -2 -12 -5z"/>
<path d="M2098 2033 c7 -3 16 -2 19 1 4 3 -2 6 -13 5 -11 0 -14 -3 -6 -6z"/>
<path d="M2193 2033 c9 -2 23 -2 30 0 6 3 -1 5 -18 5 -16 0 -22 -2 -12 -5z"/>
<path d="M483 900 c0 -30 2 -43 4 -27 3 21 10 27 28 27 18 0 25 -6 28 -27 2
-16 4 -3 4 27 0 30 -2 45 -4 33 -3 -16 -11 -23 -28 -23 -17 0 -25 7 -28 23 -2
12 -4 -3 -4 -33z"/>
<path d="M598 913 c7 -3 16 -2 19 1 4 3 -2 6 -13 5 -11 0 -14 -3 -6 -6z"/>
<path d="M643 913 c9 -2 23 -2 30 0 6 3 -1 5 -18 5 -16 0 -22 -2 -12 -5z"/>
<path d="M754 891 c0 -21 7 -36 16 -38 10 -3 11 -2 3 4 -6 4 -13 22 -16 38 -4
27 -5 27 -3 -4z"/>
<path d="M792 890 c0 -19 2 -27 5 -17 2 9 2 25 0 35 -3 9 -5 1 -5 -18z"/>
<path d="M823 885 c0 -22 2 -30 4 -17 2 12 2 30 0 40 -3 9 -5 -1 -4 -23z"/>
<path d="M847 913 c6 -4 13 -22 16 -38 4 -27 5 -27 3 4 0 21 -7 36 -16 38 -10
3 -11 2 -3 -4z"/>
<path d="M918 913 c7 -3 16 -2 19 1 4 3 -2 6 -13 5 -11 0 -14 -3 -6 -6z"/>
<path d="M1003 875 c0 -27 2 -38 4 -22 2 15 2 37 0 50 -2 12 -4 0 -4 -28z"/>
<path d="M1020 916 c0 -2 7 -7 16 -10 8 -3 12 -2 9 4 -6 10 -25 14 -25 6z"/>
<path d="M1125 910 c-3 -6 1 -7 9 -4 18 7 21 14 7 14 -6 0 -13 -4 -16 -10z"/>
<path d="M1195 909 c-11 -16 -1 -19 13 -3 7 8 8 14 3 14 -5 0 -13 -5 -16 -11z"/>
<path d="M1233 885 c0 -22 2 -30 4 -17 2 12 2 30 0 40 -3 9 -5 -1 -4 -23z"/>
<path d="M1264 891 c0 -21 7 -36 16 -38 10 -3 11 -2 3 4 -6 4 -13 22 -16 38
-4 27 -5 27 -3 -4z"/>
<path d="M1302 890 c0 -19 2 -27 5 -17 2 9 2 25 0 35 -3 9 -5 1 -5 -18z"/>
<path d="M1346 911 c-4 -5 3 -7 14 -4 23 6 26 13 6 13 -8 0 -17 -4 -20 -9z"/>
<path d="M1462 914 c10 -3 19 -19 21 -37 4 -31 5 -31 3 3 -1 27 -5 35 -21 37
-14 1 -15 0 -3 -3z"/>
<path d="M649 883 c-13 -16 -12 -17 4 -4 9 7 17 15 17 17 0 8 -8 3 -21 -13z"/>
<path d="M915 890 c-16 -7 -17 -9 -3 -9 9 -1 20 4 23 9 7 11 7 11 -20 0z"/>
<path d="M1140 890 l-25 -8 28 -1 c15 -1 27 4 27 9 0 6 -1 10 -2 9 -2 -1 -14
-5 -28 -9z"/>
<path d="M588 883 c7 -3 16 -2 19 1 4 3 -2 6 -13 5 -11 0 -14 -3 -6 -6z"/>
<path d="M1445 880 c-8 -13 3 -30 18 -30 7 0 6 4 -3 10 -13 9 -13 11 0 20 9 6
10 10 3 10 -6 0 -15 -4 -18 -10z"/>
<path d="M1190 871 c0 -10 19 -25 25 -20 1 2 -3 10 -11 17 -8 7 -14 8 -14 3z"/>
<path d="M1030 860 c-9 -6 -10 -10 -3 -10 6 0 15 5 18 10 8 12 4 12 -15 0z"/>
<path d="M1127 858 c2 -5 10 -8 18 -8 8 0 16 3 18 8 3 4 -5 7 -18 7 -13 0 -21
-3 -18 -7z"/>
<path d="M643 853 c9 -2 23 -2 30 0 6 3 -1 5 -18 5 -16 0 -22 -2 -12 -5z"/>
</g>
</svg>
